<svg xmlns="http://www.w3.org/2000/svg" width="24" height="24" viewBox="0 0 24 24">
    <path fill="#FFF" fill-rule="evenodd" d="M12 .072c6.578 0 11.926 5.328 11.926 11.88 0 6.55-5.348 11.88-11.926 11.88-6.577 0-11.926-5.33-11.926-11.88C.074 5.4 5.424.072 12 .072zm0 3.102c-4.86 0-8.813 3.937-8.813 8.778 0 4.841 3.952 8.778 8.813 8.778 4.86 0 8.813-3.937 8.813-8.778 0-4.841-3.952-8.778-8.813-8.778zm4.253 4.946a.876.876 0 0 1 1.239.043.939.939 0 0 1-.023 1.305L11.037 15.9l-2.918-2.918a.875.875 0 0 1 0-1.238.893.893 0 0 1 1.25-.012l1.668 1.604 5.205-5.205z"/>
</svg>
