<svg xmlns="http://www.w3.org/2000/svg" width="16" height="16" viewBox="0 0 16 16">
    <path fill="#FFF" fill-rule="evenodd" d="M9.442.589c.3.3.481.711.681 1.078l1 1.836c.453.832.904 1.664 1.358 2.496.468.862.94 1.725 1.41 2.588.39.718.781 1.438 1.174 2.158l.632 1.161c.205.37.341.788.293 1.22a2.237 2.237 0 0 1-.232.797 1.82 1.82 0 0 1-.393.517 2.096 2.096 0 0 1-1.408.56h-.006l-.006-.002H2.214c-.236 0-.465-.008-.697-.066-.5-.127-.91-.453-1.195-.873a1.369 1.369 0 0 1-.113-.209c-.053-.124-.11-.246-.143-.377a1.826 1.826 0 0 1-.057-.652c.036-.31.105-.567.253-.845l.007-.014c.019-.032.036-.066.055-.1.085-.158.172-.318.26-.477.327-.605.657-1.207.984-1.81.45-.824.899-1.647 1.346-2.47l1.42-2.607L5.52 2.319l.65-1.195c.183-.338.432-.624.76-.829.78-.49 1.865-.353 2.512.294zM8.002 2l-.05.001c-.033.008-.065.018-.097.027l-.076.045a.73.73 0 0 0-.05.05c-.02.03-.043.059-.06.09l-.2.367-.228.415-.228.416-.646 1.18c-.257.466-.513.933-.768 1.4-.275.503-.552 1.01-.829 1.513-.275.502-.548 1.003-.824 1.504-.252.455-.501.912-.752 1.37l-.612 1.113-.41.75c-.05.088-.1.176-.145.265-.01.03-.018.06-.026.091a.948.948 0 0 0 0 .096.86.86 0 0 0 .024.086c.015.03.031.056.049.084l.066.065.073.042c.031.01.062.017.094.025l.03.003.028.002h8.91v-.003h2.371a.834.834 0 0 0 .064-.003.612.612 0 0 0 .072-.02c.026-.014.052-.028.078-.044l.062-.061c.019-.03.037-.06.053-.091l.013-.044.011-.044v-.086a1.199 1.199 0 0 0-.03-.109l-.002-.003-.002-.003-.213-.389-.466-.85-.327-.596-.327-.596-.772-1.408-.832-1.517-.822-1.5-.748-1.36-.301-.55-.302-.55-.4-.73c-.055-.103-.108-.21-.172-.308a.686.686 0 0 0-.058-.06 2.363 2.363 0 0 0-.086-.05.888.888 0 0 0-.087-.024L8.002 2zm-.004 8.292c.1-.004.192.018.28.062.09.03.17.079.235.15.07.065.121.142.151.233.045.086.067.18.063.278v.048c0 .13-.033.252-.099.365l-.113.145a.745.745 0 0 1-.323.187l-.194.026a.558.558 0 0 1-.281-.062.548.548 0 0 1-.235-.15.548.548 0 0 1-.15-.232.543.543 0 0 1-.063-.28v-.047c0-.13.032-.252.098-.364l.114-.145a.745.745 0 0 1 .322-.187zm.001-5.418a.745.745 0 0 1 .517.212.752.752 0 0 1 .214.513v3.353c0 .197-.082.37-.214.513-.133.142-.329.203-.517.212a.745.745 0 0 1-.517-.212.752.752 0 0 1-.213-.513V5.6c0-.196.082-.369.213-.513.133-.142.329-.203.517-.212z"/>
</svg>
